<svg id="Capa_1" enable-background="new 0 0 512 512" height="512" viewBox="0 0 512 512" width="512" xmlns="http://www.w3.org/2000/svg"><g><path d="m256 313.652c-51.283 0-93.005 41.722-93.005 93.004 0 51.283 41.722 93.005 93.005 93.005 8.629 0 17.177-1.182 25.405-3.515 3.981-1.128 6.294-5.269 5.165-9.25-1.128-3.981-5.268-6.293-9.25-5.165-6.899 1.955-14.073 2.947-21.32 2.947-43.021 0-78.022-35-78.022-78.022 0-43.021 35.001-78.022 78.022-78.022s78.022 35 78.022 78.022c0 23.5-10.444 45.524-28.655 60.422-3.202 2.62-3.674 7.339-1.054 10.542s7.34 3.674 10.542 1.054c21.703-17.755 34.15-44.005 34.15-72.018 0-51.282-41.722-93.004-93.005-93.004z"/><path d="m474.227 240.479v-9.914c0-120.331-97.896-218.226-218.227-218.226-30.81 0-60.615 6.324-88.586 18.795-27.008 12.042-50.962 29.181-71.198 50.941-2.817 3.03-2.645 7.77.384 10.587 3.029 2.818 7.769 2.646 10.587-.384 38.391-41.28 92.63-64.956 148.813-64.956 112.015 0 203.154 91.087 203.242 203.082-1.687-11.244-11.41-19.894-23.116-19.894h-19.079c-4.724-38.137-22.863-73.324-51.446-99.538-30.019-27.534-68.943-42.697-109.601-42.697-40.986 0-80.143 15.378-110.257 43.302-28.241 26.186-46.109 61.1-50.793 98.933h-19.076c-11.708 0-21.431 8.653-23.116 19.899.031-40.354 11.91-79.36 34.363-112.81 2.306-3.435 1.39-8.089-2.046-10.395-3.434-2.304-8.088-1.391-10.395 2.046-24.144 35.972-36.906 77.923-36.906 121.317v9.914c-21.061 1.383-37.774 18.948-37.774 40.353v120.017c0 22.306 18.147 40.454 40.454 40.454h12.045v6.494c0 12.89 10.486 23.376 23.376 23.376h32.599c12.89 0 23.376-10.487 23.376-23.376v-213.913c0-12.357-9.64-22.499-21.794-23.317 9.855-72.013 72.448-127.311 145.944-127.311 73.192 0 136.089 55.424 145.947 127.312-12.155.815-21.797 10.958-21.797 23.317v213.913c0 12.89 10.486 23.376 23.376 23.376h32.599c12.89 0 23.377-10.487 23.377-23.376v-6.494h12.044c22.307 0 40.454-18.148 40.454-40.454v-120.018c0-21.405-16.713-38.969-37.773-40.355zm-433.773 185.843c-14.044 0-25.471-11.426-25.471-25.471v-120.017c0-14.044 11.426-25.471 25.471-25.471h12.045v170.959zm76.412-192.436v213.913c0 4.628-3.765 8.393-8.393 8.393h-32.599c-4.628 0-8.393-3.765-8.393-8.393v-213.913c0-4.628 3.765-8.393 8.393-8.393h32.599c4.628 0 8.393 3.765 8.393 8.393zm380.151 166.965c0 14.044-11.426 25.471-25.471 25.471h-12.044v-116.921c0-4.137-3.354-7.491-7.491-7.491-4.138 0-7.491 3.354-7.491 7.491v138.398c0 4.628-3.765 8.393-8.394 8.393h-32.599c-4.628 0-8.393-3.765-8.393-8.393v-213.913c0-4.628 3.765-8.393 8.393-8.393h32.599c4.629 0 8.394 3.765 8.394 8.393v39.996c0 4.137 3.354 7.491 7.491 7.491 4.138 0 7.491-3.354 7.491-7.491v-18.519h12.044c14.044 0 25.471 11.426 25.471 25.471z"/><path d="m196.049 273.929c4.138 0 7.491-3.354 7.491-7.491v-60.701c0-4.137-3.354-7.491-7.491-7.491-4.138 0-7.491 3.354-7.491 7.491v60.701c0 4.137 3.353 7.491 7.491 7.491z"/><path d="m345.927 208.717c-4.138 0-7.491 3.354-7.491 7.491v39.758c0 4.137 3.354 7.491 7.491 7.491s7.491-3.354 7.491-7.491v-39.758c.001-4.137-3.353-7.491-7.491-7.491z"/><path d="m233.516 283.299v-94.423c0-4.137-3.354-7.491-7.491-7.491s-7.491 3.354-7.491 7.491v94.423c0 4.137 3.354 7.491 7.491 7.491s7.491-3.353 7.491-7.491z"/><path d="m263.491 274.869v-77.562c0-4.137-3.354-7.491-7.491-7.491s-7.491 3.354-7.491 7.491v77.562c0 4.137 3.354 7.491 7.491 7.491s7.491-3.354 7.491-7.491z"/><path d="m323.443 283.299v-94.423c0-4.137-3.354-7.491-7.491-7.491s-7.491 3.354-7.491 7.491v94.423c0 4.137 3.354 7.491 7.491 7.491s7.491-3.353 7.491-7.491z"/><path d="m293.467 245.495v-18.815c0-4.137-3.354-7.491-7.491-7.491s-7.491 3.354-7.491 7.491v18.815c0 4.137 3.354 7.491 7.491 7.491s7.491-3.353 7.491-7.491z"/><path d="m173.565 245.495v-18.815c0-4.137-3.354-7.491-7.491-7.491-4.138 0-7.491 3.354-7.491 7.491v18.815c0 4.137 3.354 7.491 7.491 7.491 4.137.001 7.491-3.353 7.491-7.491z"/><path d="m298.343 394.979-58.624-33.847c-4.222-2.438-9.263-2.438-13.485 0-4.222 2.437-6.742 6.803-6.742 11.678v67.694c0 4.875 2.521 9.24 6.742 11.678 4.222 2.438 9.263 2.438 13.485 0l58.624-33.847c4.222-2.438 6.742-6.804 6.742-11.679s-2.52-9.24-6.742-11.677zm-63.868 42.929v-62.503l54.129 31.252z"/></g></svg>